<svg width="56" height="56" viewBox="0 0 56 56" fill="none" xmlns="http://www.w3.org/2000/svg">
<rect width="56" height="56" rx="10" fill="url(#paint0_linear_400_73)" fill-opacity="0.2"/>
<path d="M36.5039 19C35.6456 18.9991 34.7958 19.1691 34.0039 19.5V19.495C34.0039 15.0085 29.9859 13 26.0039 13C22.6349 13 21.5074 14.3745 21.1599 15.035C20.2774 15.178 18.0039 15.8955 18.0039 19.495V24C18.0049 24.5755 18.2045 25.133 18.5688 25.5784C18.9332 26.0238 19.4401 26.3299 20.0039 26.445V27.09C20.0042 27.4465 20.0807 27.7989 20.2283 28.1234C20.376 28.4479 20.5913 28.7371 20.8599 28.9715L22.0824 30.041C22.2077 31.0572 22.0591 32.0885 21.6519 33.028C20.3904 33.1615 16.0774 33.7145 14.6519 35.1415C13.2894 36.5025 13.0039 39.622 13.0039 42C13.0039 42.2652 13.1093 42.5196 13.2968 42.7071C13.4843 42.8946 13.7387 43 14.0039 43H38.0039C38.2691 43 38.5235 42.8946 38.711 42.7071C38.8986 42.5196 39.0039 42.2652 39.0039 42C39.0039 39.622 38.7184 36.5025 37.3574 35.1415C35.9304 33.7145 31.6174 33.1615 30.3574 33.028C29.9502 32.0885 29.8016 31.0572 29.9269 30.041L31.0599 29.05C31.1009 29.113 31.1394 29.178 31.1829 29.2405L31.0129 30.599C30.9877 30.7997 31.0119 31.0036 31.0833 31.1929C31.1546 31.3822 31.2711 31.5513 31.4225 31.6854C31.574 31.8196 31.7558 31.9148 31.9524 31.9628C32.1489 32.0108 32.3542 32.0102 32.5504 31.961L34.1479 31.561C35.0379 31.9058 35.9929 32.0504 36.9451 31.9845C37.8973 31.9185 38.8233 31.6437 39.6573 31.1796C40.4913 30.7154 41.2128 30.0732 41.7706 29.2987C42.3284 28.5242 42.7088 27.6364 42.8847 26.6983C43.0607 25.7602 43.0279 24.7948 42.7887 23.8708C42.5494 22.9468 42.1097 22.0869 41.5006 21.352C40.8915 20.6172 40.128 20.0255 39.2644 19.619C38.4009 19.2125 37.4584 19.0011 36.5039 19ZM21.5039 16C21.6132 15.998 21.7189 15.9611 21.8057 15.8947C21.8925 15.8283 21.9558 15.7359 21.9864 15.631C22.0039 15.564 22.5039 14 26.0039 14C29.2329 14 33.0039 15.439 33.0039 19.495V20.0315C32.584 20.3007 32.1961 20.6169 31.8479 20.974C31.6671 20.3752 31.2669 19.8666 30.7274 19.55C30.6392 19.5058 30.5399 19.4884 30.4419 19.5C27.7659 19.835 27.0144 19.4795 25.7684 18.89C25.0859 18.5551 24.3822 18.2652 23.6619 18.022C23.2998 17.8715 22.9059 17.8136 22.5158 17.8534C22.1257 17.8932 21.7517 18.0295 21.4274 18.25C20.3419 19.032 20.0834 20.7215 20.0224 21.5525C19.6521 21.6274 19.3038 21.7857 19.0039 22.0155V19.495C19.0039 16.1305 21.2509 16.0035 21.5039 16ZM14.1334 39.5H17.5039V42H14.0039C14.0007 41.1649 14.0439 40.3303 14.1334 39.5ZM34.5039 42V39.5H37.8744C37.9639 40.3303 38.0071 41.1649 38.0039 42H34.5039ZM30.2144 34.019C31.8609 34.1925 35.5844 34.783 36.6504 35.8485C37.1329 36.3315 37.5004 37.2485 37.7294 38.4985H34.5039V38C34.5039 37.8674 34.4512 37.7402 34.3575 37.6464C34.2637 37.5527 34.1365 37.5 34.0039 37.5C33.8713 37.5 33.7441 37.5527 33.6504 37.6464C33.5566 37.7402 33.5039 37.8674 33.5039 38V42H18.5039V38C18.5039 37.8674 18.4512 37.7402 18.3575 37.6464C18.2637 37.5527 18.1365 37.5 18.0039 37.5C17.8713 37.5 17.7441 37.5527 17.6504 37.6464C17.5566 37.7402 17.5039 37.8674 17.5039 38V38.5H14.2784C14.5079 37.25 14.8749 36.3315 15.3574 35.85C16.4234 34.7845 20.1469 34.194 21.7934 34.0205C22.2434 34.4965 23.4869 35.497 26.0039 35.497C28.5209 35.497 29.7639 34.495 30.2144 34.019ZM29.4219 33.4045C29.0539 33.762 28.0539 34.4955 26.0039 34.4955C23.9539 34.4955 22.9489 33.7605 22.5854 33.405C22.9096 32.6253 23.0918 31.7939 23.1234 30.95L23.6094 31.375C24.0641 31.7745 24.6486 31.9949 25.2539 31.995H26.7539C27.3588 31.9952 27.9432 31.7754 28.3979 31.3765L28.8844 30.951C28.9159 31.7943 29.0979 32.6252 29.4219 33.4045ZM27.7394 30.624C27.4668 30.8632 27.1166 30.9951 26.7539 30.995H25.2539C24.891 30.995 24.5406 30.863 24.2679 30.6235L21.5179 28.219C21.3567 28.0784 21.2274 27.9049 21.1387 27.7101C21.0501 27.5154 21.0041 27.304 21.0039 27.09V25.995C21.0039 25.8624 20.9512 25.7352 20.8575 25.6414C20.7637 25.5477 20.6365 25.495 20.5039 25.495C20.1503 25.498 19.8071 25.3751 19.5356 25.1484C19.2642 24.9217 19.0822 24.6059 19.0221 24.2574C18.962 23.9089 19.0277 23.5503 19.2076 23.2458C19.3874 22.9413 19.6697 22.7106 20.0039 22.595V23.495C20.0039 23.6276 20.0566 23.7548 20.1504 23.8486C20.2441 23.9423 20.3713 23.995 20.5039 23.995C20.6365 23.995 20.7637 23.9423 20.8575 23.8486C20.9512 23.7548 21.0039 23.6276 21.0039 23.495V22.005V22V21.9955C21.0039 21.38 21.1889 19.6525 22.0129 19.0595C22.2104 18.9357 22.4355 18.8627 22.668 18.8469C22.9006 18.8311 23.1335 18.873 23.3459 18.969C24.0281 19.2006 24.6947 19.476 25.3414 19.7935C26.6259 20.401 27.5614 20.8435 30.3829 20.513C30.5948 20.6967 30.7612 20.927 30.869 21.1859C30.9768 21.4448 31.0229 21.7252 31.0039 22.005C31.0039 22.0175 31.0099 22.028 31.0109 22.04C30.4393 22.9403 30.0991 23.9679 30.0206 25.0315C29.942 26.0951 30.1277 27.1615 30.5609 28.136C30.3424 28.361 28.8249 29.669 27.7394 30.624ZM36.5039 31C35.7737 31.0016 35.0506 30.8567 34.3774 30.574C34.2778 30.5321 34.1672 30.5239 34.0624 30.5505L32.3044 30.9905C32.2659 31 32.2257 31 32.1872 30.9905C32.1488 30.9809 32.1132 30.9622 32.0836 30.9357C32.0541 30.9093 32.0314 30.8761 32.0176 30.8389C32.0038 30.8018 31.9993 30.7618 32.0044 30.7225L32.1999 29.1675C32.2158 29.0386 32.1812 28.9085 32.1034 28.8045C31.359 27.814 30.9708 26.6012 31.0017 25.3625C31.0327 24.1238 31.481 22.9319 32.2741 21.9799C33.0671 21.0278 34.1584 20.3715 35.371 20.1171C36.5837 19.8628 37.8467 20.0254 38.9555 20.5785C40.0642 21.1317 40.9536 22.043 41.4797 23.1649C42.0058 24.2867 42.1376 25.5533 41.8539 26.7594C41.5702 27.9656 40.8875 29.0406 39.9165 29.8102C38.9454 30.5799 37.743 30.9991 36.5039 31Z" fill="white"/>
<defs>
<linearGradient id="paint0_linear_400_73" x1="0" y1="28" x2="56" y2="28" gradientUnits="userSpaceOnUse">
<stop stop-color="#113355" stop-opacity="0.87"/>
<stop offset="0.432692" stop-color="#C906FF"/>
<stop offset="0.870192" stop-color="#EBA2FF"/>
</linearGradient>
</defs>
</svg>
