<svg width="56" height="56" viewBox="0 0 56 56" fill="none" xmlns="http://www.w3.org/2000/svg">
<rect width="56" height="56" rx="10" fill="url(#paint0_linear_400_102)" fill-opacity="0.2"/>
<path d="M23.6937 30.831C23.5969 30.7826 23.5486 30.7342 23.4518 30.6858C23.1615 30.5407 22.8711 30.4923 22.5324 30.4923C22.0486 30.4923 21.6615 30.5891 21.3228 30.831C20.9841 31.0729 20.8389 31.46 20.8389 32.0407C20.8389 32.573 20.9841 32.9601 21.3228 33.202C21.6615 33.4439 22.0486 33.5407 22.5324 33.5407C22.9679 33.5407 23.3066 33.4439 23.6453 33.202L23.6937 33.1536C24.0324 32.9117 24.1776 32.5246 24.1776 31.9923C24.1776 31.46 23.984 31.0729 23.6937 30.831ZM25.7744 22.2664C25.0969 21.7342 24.1776 21.4438 22.9679 21.4438C22.1453 21.4438 21.4195 21.5406 20.7421 21.7342C20.0647 21.9277 19.4357 22.218 18.8066 22.5568L19.9195 24.7342C20.4518 24.4439 20.9357 24.2503 21.4195 24.1052C21.9034 23.96 22.3389 23.9116 22.726 23.9116C23.0647 23.9116 23.3066 23.96 23.5002 24.1052C23.6937 24.2503 23.7905 24.3955 23.7905 24.6374C23.7905 24.7826 23.7421 24.9277 23.6937 25.0729C23.6453 25.2181 23.5486 25.3632 23.355 25.5568C23.1615 25.7503 22.9195 25.9439 22.5808 26.1374C22.1937 26.3794 21.9034 26.6213 21.7099 26.8632C21.5163 27.1052 21.3711 27.3471 21.2744 27.6374C21.1776 27.9278 21.1776 28.2181 21.1776 28.5568V29.2342H23.6453V28.7987C23.6453 28.6052 23.6937 28.46 23.7421 28.3632C23.8389 28.2181 23.9357 28.0729 24.1292 27.9278C24.3228 27.7826 24.5647 27.5891 24.9034 27.3955C25.3389 27.1052 25.726 26.8149 26.0163 26.4761C26.3066 26.1858 26.5002 25.8471 26.6453 25.5084C26.7905 25.1697 26.8389 24.7826 26.8389 24.3471C26.7905 23.5245 26.4518 22.7987 25.7744 22.2664Z" stroke="#C906FF" stroke-miterlimit="10" stroke-linecap="round" stroke-linejoin="round"/>
<path d="M15.4193 22.6047V19.9434H18.129M27.4677 19.8951H30.1774V22.5564M30.1774 31.1693V33.8306H27.4677M30.8548 17.3789H14.7419C13.7742 17.3789 13 18.1531 13 19.1209V35.2823C13 36.25 13.7742 37.0242 14.7419 37.0242H16.2903C16.2903 37.0242 14.2581 41.8146 14.4032 41.8146C14.5968 41.8146 21.3226 37.0242 21.3226 37.0242H30.8548C31.8225 37.0242 32.5967 36.25 32.5967 35.2823V19.1209C32.5967 18.1531 31.8225 17.3789 30.8548 17.3789Z" stroke="white" stroke-width="1.5" stroke-miterlimit="10" stroke-linecap="round" stroke-linejoin="round"/>
<path d="M15.6123 31.1698V33.8795H18.4671" stroke="white" stroke-width="1.5" stroke-miterlimit="10" stroke-linecap="round" stroke-linejoin="round"/>
<path d="M23.4033 17.3791V15.9275C23.4033 14.9597 24.1775 14.1855 25.1453 14.1855H41.2581C42.2258 14.1855 43 14.9597 43 15.9275V32.0889C43 33.0566 42.2258 33.8308 41.2581 33.8308H39.7097C39.7097 33.8308 41.5968 38.2341 41.5968 38.6212C41.4033 38.6212 34.6775 33.8308 34.6775 33.8308H32.5968" stroke="white" stroke-width="1.5" stroke-miterlimit="10" stroke-linecap="round" stroke-linejoin="round"/>
<defs>
<linearGradient id="paint0_linear_400_102" x1="0" y1="28" x2="56" y2="28" gradientUnits="userSpaceOnUse">
<stop stop-color="#113355" stop-opacity="0.87"/>
<stop offset="0.432692" stop-color="#C906FF"/>
<stop offset="0.870192" stop-color="#EBA2FF"/>
</linearGradient>
</defs>
</svg>
