<svg width="56" height="56" viewBox="0 0 56 56" fill="none" xmlns="http://www.w3.org/2000/svg">
<rect width="56" height="56" rx="10" fill="url(#paint0_linear_400_267)" fill-opacity="0.2"/>
<path d="M25.4707 13.4993C32.071 13.4993 37.4413 18.8697 37.4414 25.47C37.4414 27.5116 36.9224 29.5117 35.9375 31.2825L35.7998 31.5305L35.9414 31.7756L42.1348 42.5012H25.5781L28.1875 37.9827L28.7295 37.0432L27.6631 37.2405C26.9449 37.3733 26.2127 37.4407 25.4707 37.4407C18.8705 37.4406 13.5 32.0702 13.5 25.47C13.5001 18.8698 18.8705 13.4993 25.4707 13.4993ZM33.4238 30.429L27.3242 40.9934L26.8916 41.7434H40.8213L40.3887 40.9934L34.2891 30.429L33.8564 29.679L33.4238 30.429ZM29.4961 31.9465C28.928 33.2641 28.1831 34.5076 27.2744 35.6467L26.4092 36.7307L27.7676 36.4475C28.2374 36.3495 28.7009 36.2208 29.1553 36.0627L29.3311 36.0022L29.4238 35.8411L31.4131 32.3948L31.8457 31.6448H29.626L29.4961 31.9465ZM16.707 32.4573C18.305 34.4579 20.5739 35.9021 23.1719 36.4456L24.5312 36.7297L23.665 35.6448C22.757 34.5064 22.0139 33.2634 21.4463 31.9465L21.3154 31.6448H16.0586L16.707 32.4573ZM22.4756 32.3665C23.1522 33.7372 24.0344 35.0114 25.1064 36.1506L25.4707 36.5383L25.835 36.1506C26.9071 35.0113 27.7902 33.7374 28.4668 32.3665L28.8223 31.6448H22.1191L22.4756 32.3665ZM14.2959 26.3899C14.4195 27.903 14.8441 29.3326 15.5107 30.6174L15.6514 30.887H21.0166L20.8213 30.2415C20.439 28.9811 20.2083 27.6676 20.1396 26.3235L20.1152 25.8489H14.252L14.2959 26.3899ZM20.9023 26.3772C20.9844 27.814 21.2607 29.215 21.7188 30.5491L21.835 30.887H29.1074L29.2227 30.5491C29.6807 29.215 29.957 27.814 30.0391 26.3772L30.0693 25.8489H20.8721L20.9023 26.3772ZM30.8018 26.3235C30.7333 27.6675 30.5024 28.9811 30.1201 30.2415L29.9248 30.887H32.2832L32.4277 30.637L33.8555 28.1633L34.8848 29.9446L35.3838 30.8088L35.7773 29.8918C36.2534 28.7821 36.5456 27.5995 36.6445 26.3899L36.6885 25.8489H30.8262L30.8018 26.3235ZM15.5107 20.3225C14.8441 21.6073 14.4196 23.0368 14.2959 24.55L14.252 25.0911H20.1162L20.1406 24.6165C20.2093 23.2725 20.4389 21.9591 20.8213 20.6985L21.0176 20.053H15.6514L15.5107 20.3225ZM21.7197 20.3909C21.2615 21.7254 20.9844 23.1258 20.9023 24.5627L20.8721 25.0911H30.0693L30.0391 24.5627C29.957 23.126 29.6809 21.7254 29.2227 20.3909L29.1064 20.053H21.835L21.7197 20.3909ZM30.1201 20.6985C30.5028 21.9591 30.7323 23.2725 30.8008 24.6165L30.8252 25.0911H36.6895L36.6455 24.55C36.5221 23.0368 36.0973 21.6073 35.4307 20.3225L35.29 20.053H29.9238L30.1201 20.6985ZM23.1748 14.4934C20.5757 15.0366 18.3057 16.4816 16.707 18.4827L16.0586 19.2952H21.3164L21.4463 18.9934C22.0144 17.6768 22.7592 16.4344 23.668 15.2952L24.5332 14.2102L23.1748 14.4934ZM25.1064 14.7913C24.0346 15.9303 23.1521 17.2038 22.4756 18.5735L22.1191 19.2952H28.8223L28.4658 18.5735C27.7894 17.2037 26.9066 15.9303 25.835 14.7913L25.4707 14.4036L25.1064 14.7913ZM27.2744 15.2952C28.1831 16.4343 28.9271 17.6769 29.4951 18.9934L29.625 19.2952H34.8828L34.2344 18.4827C32.6357 16.4816 30.3655 15.0376 27.7666 14.4944L26.4082 14.2102L27.2744 15.2952Z" fill="black" stroke="white"/>
<path d="M34.2354 34.304V36.5813H33.4775V34.304H34.2354Z" fill="black" stroke="#C906FF"/>
<path d="M34.2354 38.8245V39.5823H33.4775V38.8245H34.2354Z" fill="black" stroke="#C906FF"/>
<defs>
<linearGradient id="paint0_linear_400_267" x1="0" y1="28" x2="56" y2="28" gradientUnits="userSpaceOnUse">
<stop stop-color="#113355" stop-opacity="0.87"/>
<stop offset="0.432692" stop-color="#C906FF"/>
<stop offset="0.870192" stop-color="#EBA2FF"/>
</linearGradient>
</defs>
</svg>
