<svg width="56" height="56" viewBox="0 0 56 56" fill="none" xmlns="http://www.w3.org/2000/svg">
<rect width="56" height="56" rx="10" fill="url(#paint0_linear_400_209)" fill-opacity="0.2"/>
<mask id="path-2-inside-1_400_209" fill="white">
<path d="M33.0282 27.4397H32.1586V23.5875C32.1586 22.2662 31.0837 21.1913 29.7624 21.1913H26.2374C24.9161 21.1913 23.8412 22.2662 23.8412 23.5875V27.4397H22.9717V23.5875C22.9717 21.7868 24.4367 20.3218 26.2374 20.3218H29.7624C31.5631 20.3218 33.0282 21.7868 33.0282 23.5875V27.4397Z"/>
</mask>
<path d="M33.0282 27.4397H32.1586V23.5875C32.1586 22.2662 31.0837 21.1913 29.7624 21.1913H26.2374C24.9161 21.1913 23.8412 22.2662 23.8412 23.5875V27.4397H22.9717V23.5875C22.9717 21.7868 24.4367 20.3218 26.2374 20.3218H29.7624C31.5631 20.3218 33.0282 21.7868 33.0282 23.5875V27.4397Z" fill="black"/>
<path d="M33.0282 27.4397V28.4397H34.0282V27.4397H33.0282ZM32.1586 27.4397H31.1586V28.4397H32.1586V27.4397ZM23.8412 27.4397V28.4397H24.8412V27.4397H23.8412ZM22.9717 27.4397H21.9717V28.4397H22.9717V27.4397ZM33.0282 27.4397V26.4397H32.1586V27.4397V28.4397H33.0282V27.4397ZM32.1586 27.4397H33.1586V23.5875H32.1586H31.1586V27.4397H32.1586ZM32.1586 23.5875H33.1586C33.1586 21.7139 31.636 20.1913 29.7624 20.1913V21.1913V22.1913C30.5315 22.1913 31.1586 22.8185 31.1586 23.5875H32.1586ZM29.7624 21.1913V20.1913H26.2374V21.1913V22.1913H29.7624V21.1913ZM26.2374 21.1913V20.1913C24.3638 20.1913 22.8412 21.7139 22.8412 23.5875H23.8412H24.8412C24.8412 22.8185 25.4684 22.1913 26.2374 22.1913V21.1913ZM23.8412 23.5875H22.8412V27.4397H23.8412H24.8412V23.5875H23.8412ZM23.8412 27.4397V26.4397H22.9717V27.4397V28.4397H23.8412V27.4397ZM22.9717 27.4397H23.9717V23.5875H22.9717H21.9717V27.4397H22.9717ZM22.9717 23.5875H23.9717C23.9717 22.3391 24.989 21.3218 26.2374 21.3218V20.3218V19.3218C23.8845 19.3218 21.9717 21.2346 21.9717 23.5875H22.9717ZM26.2374 20.3218V21.3218H29.7624V20.3218V19.3218H26.2374V20.3218ZM29.7624 20.3218V21.3218C31.0108 21.3218 32.0282 22.3391 32.0282 23.5875H33.0282H34.0282C34.0282 21.2346 32.1154 19.3218 29.7624 19.3218V20.3218ZM33.0282 23.5875H32.0282V27.4397H33.0282H34.0282V23.5875H33.0282Z" fill="white" mask="url(#path-2-inside-1_400_209)"/>
<mask id="path-4-inside-2_400_209" fill="white">
<path d="M28.0691 20.8931H27.9311C26.3047 20.8931 24.9814 19.5698 24.9814 17.9434V16.4193C24.9814 14.7927 26.3047 13.4695 27.9311 13.4695H28.0691C29.6955 13.4695 31.0187 14.7927 31.0187 16.4193V17.9434C31.0187 19.5698 29.6955 20.8931 28.0691 20.8931ZM27.9311 14.339C26.7841 14.339 25.851 15.2723 25.851 16.4193V17.9434C25.851 19.0905 26.7841 20.0235 27.9311 20.0235H28.0691C29.2161 20.0235 30.1492 19.0905 30.1492 17.9434V16.4193C30.1492 15.2723 29.2161 14.339 28.0691 14.339H27.9311Z"/>
</mask>
<path d="M28.0691 20.8931H27.9311C26.3047 20.8931 24.9814 19.5698 24.9814 17.9434V16.4193C24.9814 14.7927 26.3047 13.4695 27.9311 13.4695H28.0691C29.6955 13.4695 31.0187 14.7927 31.0187 16.4193V17.9434C31.0187 19.5698 29.6955 20.8931 28.0691 20.8931ZM27.9311 14.339C26.7841 14.339 25.851 15.2723 25.851 16.4193V17.9434C25.851 19.0905 26.7841 20.0235 27.9311 20.0235H28.0691C29.2161 20.0235 30.1492 19.0905 30.1492 17.9434V16.4193C30.1492 15.2723 29.2161 14.339 28.0691 14.339H27.9311Z" fill="black"/>
<path d="M31.0187 17.9434H30.0187V17.9434H31.0187ZM28.0691 20.8931V19.8931H27.9311V20.8931V21.8931H28.0691V20.8931ZM27.9311 20.8931V19.8931C26.857 19.8931 25.9814 19.0175 25.9814 17.9434H24.9814H23.9814C23.9814 20.1221 25.7524 21.8931 27.9311 21.8931V20.8931ZM24.9814 17.9434H25.9814V16.4193H24.9814H23.9814V17.9434H24.9814ZM24.9814 16.4193H25.9814C25.9814 15.345 26.857 14.4695 27.9311 14.4695V13.4695V12.4695C25.7524 12.4695 23.9814 14.2405 23.9814 16.4193H24.9814ZM27.9311 13.4695V14.4695H28.0691V13.4695V12.4695H27.9311V13.4695ZM28.0691 13.4695V14.4695C29.1432 14.4695 30.0187 15.345 30.0187 16.4193H31.0187H32.0187C32.0187 14.2405 30.2478 12.4695 28.0691 12.4695V13.4695ZM31.0187 16.4193H30.0187V17.9434H31.0187H32.0187V16.4193H31.0187ZM31.0187 17.9434H30.0187C30.0187 19.0175 29.1432 19.8931 28.0691 19.8931V20.8931V21.8931C30.2478 21.8931 32.0187 20.1221 32.0187 17.9434H31.0187ZM27.9311 14.339V13.339C26.2316 13.339 24.851 14.7202 24.851 16.4193H25.851H26.851C26.851 15.8245 27.3365 15.339 27.9311 15.339V14.339ZM25.851 16.4193H24.851V17.9434H25.851H26.851V16.4193H25.851ZM25.851 17.9434H24.851C24.851 19.6427 26.2318 21.0235 27.9311 21.0235V20.0235V19.0235C27.3363 19.0235 26.851 18.5382 26.851 17.9434H25.851ZM27.9311 20.0235V21.0235H28.0691V20.0235V19.0235H27.9311V20.0235ZM28.0691 20.0235V21.0235C29.7684 21.0235 31.1492 19.6427 31.1492 17.9434H30.1492H29.1492C29.1492 18.5382 28.6638 19.0235 28.0691 19.0235V20.0235ZM30.1492 17.9434H31.1492V16.4193H30.1492H29.1492V17.9434H30.1492ZM30.1492 16.4193H31.1492C31.1492 14.7202 29.7685 13.339 28.0691 13.339V14.339V15.339C28.6637 15.339 29.1492 15.8245 29.1492 16.4193H30.1492ZM28.0691 14.339V13.339H27.9311V14.339V15.339H28.0691V14.339Z" fill="white" mask="url(#path-4-inside-2_400_209)"/>
<mask id="path-6-inside-3_400_209" fill="white">
<path d="M30.4043 24.2498H31.2738V27.5597H30.4043V24.2498Z"/>
</mask>
<path d="M30.4043 24.2498H31.2738V27.5597H30.4043V24.2498Z" fill="black"/>
<path d="M30.4043 24.2498V23.2498H29.4043V24.2498H30.4043ZM31.2738 24.2498H32.2738V23.2498H31.2738V24.2498ZM31.2738 27.5597V28.5597H32.2738V27.5597H31.2738ZM30.4043 27.5597H29.4043V28.5597H30.4043V27.5597ZM30.4043 24.2498V25.2498H31.2738V24.2498V23.2498H30.4043V24.2498ZM31.2738 24.2498H30.2738V27.5597H31.2738H32.2738V24.2498H31.2738ZM31.2738 27.5597V26.5597H30.4043V27.5597V28.5597H31.2738V27.5597ZM30.4043 27.5597H31.4043V24.2498H30.4043H29.4043V27.5597H30.4043Z" fill="white" mask="url(#path-6-inside-3_400_209)"/>
<mask id="path-8-inside-4_400_209" fill="white">
<path d="M24.7266 24.2498H25.596V27.5597H24.7266V24.2498Z"/>
</mask>
<path d="M24.7266 24.2498H25.596V27.5597H24.7266V24.2498Z" fill="black"/>
<path d="M24.7266 24.2498V23.2498H23.7266V24.2498H24.7266ZM25.596 24.2498H26.596V23.2498H25.596V24.2498ZM25.596 27.5597V28.5597H26.596V27.5597H25.596ZM24.7266 27.5597H23.7266V28.5597H24.7266V27.5597ZM24.7266 24.2498V25.2498H25.596V24.2498V23.2498H24.7266V24.2498ZM25.596 24.2498H24.596V27.5597H25.596H26.596V24.2498H25.596ZM25.596 27.5597V26.5597H24.7266V27.5597V28.5597H25.596V27.5597ZM24.7266 27.5597H25.7266V24.2498H24.7266H23.7266V27.5597H24.7266Z" fill="white" mask="url(#path-8-inside-4_400_209)"/>
<mask id="path-10-inside-5_400_209" fill="white">
<path d="M18.0565 42.4113H17.1869V38.5592C17.1869 37.2379 16.1121 36.163 14.7907 36.163H11.2658C9.94442 36.163 8.86957 37.2379 8.86957 38.5592V42.4113H8V38.5592C8 36.7585 9.46506 35.2935 11.2658 35.2935H14.7907C16.5914 35.2935 18.0565 36.7585 18.0565 38.5592V42.4113Z"/>
</mask>
<path d="M18.0565 42.4113H17.1869V38.5592C17.1869 37.2379 16.1121 36.163 14.7907 36.163H11.2658C9.94442 36.163 8.86957 37.2379 8.86957 38.5592V42.4113H8V38.5592C8 36.7585 9.46506 35.2935 11.2658 35.2935H14.7907C16.5914 35.2935 18.0565 36.7585 18.0565 38.5592V42.4113Z" fill="black"/>
<path d="M18.0565 42.4113V43.4113H19.0565V42.4113H18.0565ZM17.1869 42.4113H16.1869V43.4113H17.1869V42.4113ZM8.86957 42.4113V43.4113H9.86957V42.4113H8.86957ZM8 42.4113H7V43.4113H8V42.4113ZM18.0565 42.4113V41.4113H17.1869V42.4113V43.4113H18.0565V42.4113ZM17.1869 42.4113H18.1869V38.5592H17.1869H16.1869V42.4113H17.1869ZM17.1869 38.5592H18.1869C18.1869 36.6856 16.6643 35.163 14.7907 35.163V36.163V37.163C15.5598 37.163 16.1869 37.7902 16.1869 38.5592H17.1869ZM14.7907 36.163V35.163H11.2658V36.163V37.163H14.7907V36.163ZM11.2658 36.163V35.163C9.39214 35.163 7.86957 36.6856 7.86957 38.5592H8.86957H9.86957C9.86957 37.7902 10.4967 37.163 11.2658 37.163V36.163ZM8.86957 38.5592H7.86957V42.4113H8.86957H9.86957V38.5592H8.86957ZM8.86957 42.4113V41.4113H8V42.4113V43.4113H8.86957V42.4113ZM8 42.4113H9V38.5592H8H7V42.4113H8ZM8 38.5592H9C9 37.3108 10.0173 36.2935 11.2658 36.2935V35.2935V34.2935C8.91277 34.2935 7 36.2062 7 38.5592H8ZM11.2658 35.2935V36.2935H14.7907V35.2935V34.2935H11.2658V35.2935ZM14.7907 35.2935V36.2935C16.0391 36.2935 17.0565 37.3108 17.0565 38.5592H18.0565H19.0565C19.0565 36.2062 17.1437 34.2935 14.7907 34.2935V35.2935ZM18.0565 38.5592H17.0565V42.4113H18.0565H19.0565V38.5592H18.0565Z" fill="white" mask="url(#path-10-inside-5_400_209)"/>
<path d="M12.959 29.3765H13.0967C14.2094 29.3765 15.1122 30.2784 15.1123 31.3911V32.9155C15.1123 34.0283 14.2095 34.9302 13.0967 34.9302H12.959C11.8463 34.93 10.9443 34.0282 10.9443 32.9155V31.3911C10.9445 30.2785 11.8464 29.3766 12.959 29.3765Z" fill="#C906FF" stroke="white"/>
<mask id="path-13-inside-6_400_209" fill="white">
<path d="M15.4316 39.2205H16.3011V42.5304H15.4316V39.2205Z"/>
</mask>
<path d="M15.4316 39.2205H16.3011V42.5304H15.4316V39.2205Z" fill="black"/>
<path d="M15.4316 39.2205V38.2205H14.4316V39.2205H15.4316ZM16.3011 39.2205H17.3011V38.2205H16.3011V39.2205ZM16.3011 42.5304V43.5304H17.3011V42.5304H16.3011ZM15.4316 42.5304H14.4316V43.5304H15.4316V42.5304ZM15.4316 39.2205V40.2205H16.3011V39.2205V38.2205H15.4316V39.2205ZM16.3011 39.2205H15.3011V42.5304H16.3011H17.3011V39.2205H16.3011ZM16.3011 42.5304V41.5304H15.4316V42.5304V43.5304H16.3011V42.5304ZM15.4316 42.5304H16.4316V39.2205H15.4316H14.4316V42.5304H15.4316Z" fill="white" mask="url(#path-13-inside-6_400_209)"/>
<mask id="path-15-inside-7_400_209" fill="white">
<path d="M9.75488 39.2205H10.6244V42.5304H9.75488V39.2205Z"/>
</mask>
<path d="M9.75488 39.2205H10.6244V42.5304H9.75488V39.2205Z" fill="black"/>
<path d="M9.75488 39.2205V38.2205H8.75488V39.2205H9.75488ZM10.6244 39.2205H11.6244V38.2205H10.6244V39.2205ZM10.6244 42.5304V43.5304H11.6244V42.5304H10.6244ZM9.75488 42.5304H8.75488V43.5304H9.75488V42.5304ZM9.75488 39.2205V40.2205H10.6244V39.2205V38.2205H9.75488V39.2205ZM10.6244 39.2205H9.62436V42.5304H10.6244H11.6244V39.2205H10.6244ZM10.6244 42.5304V41.5304H9.75488V42.5304V43.5304H10.6244V42.5304ZM9.75488 42.5304H10.7549V39.2205H9.75488H8.75488V42.5304H9.75488Z" fill="white" mask="url(#path-15-inside-7_400_209)"/>
<mask id="path-17-inside-8_400_209" fill="white">
<path d="M47.9998 42.4113H47.1303V38.5592C47.1303 37.2379 46.0554 36.163 44.7341 36.163H41.2091C39.8878 36.163 38.8129 37.2379 38.8129 38.5592V42.4113H37.9434V38.5592C37.9434 36.7585 39.4084 35.2935 41.2091 35.2935H44.7341C46.5348 35.2935 47.9998 36.7585 47.9998 38.5592V42.4113Z"/>
</mask>
<path d="M47.9998 42.4113H47.1303V38.5592C47.1303 37.2379 46.0554 36.163 44.7341 36.163H41.2091C39.8878 36.163 38.8129 37.2379 38.8129 38.5592V42.4113H37.9434V38.5592C37.9434 36.7585 39.4084 35.2935 41.2091 35.2935H44.7341C46.5348 35.2935 47.9998 36.7585 47.9998 38.5592V42.4113Z" fill="black"/>
<path d="M47.9998 42.4113V43.4113H48.9998V42.4113H47.9998ZM47.1303 42.4113H46.1303V43.4113H47.1303V42.4113ZM38.8129 42.4113V43.4113H39.8129V42.4113H38.8129ZM37.9434 42.4113H36.9434V43.4113H37.9434V42.4113ZM47.9998 42.4113V41.4113H47.1303V42.4113V43.4113H47.9998V42.4113ZM47.1303 42.4113H48.1303V38.5592H47.1303H46.1303V42.4113H47.1303ZM47.1303 38.5592H48.1303C48.1303 36.6856 46.6077 35.163 44.7341 35.163V36.163V37.163C45.5031 37.163 46.1303 37.7902 46.1303 38.5592H47.1303ZM44.7341 36.163V35.163H41.2091V36.163V37.163H44.7341V36.163ZM41.2091 36.163V35.163C39.3355 35.163 37.8129 36.6856 37.8129 38.5592H38.8129H39.8129C39.8129 37.7902 40.4401 37.163 41.2091 37.163V36.163ZM38.8129 38.5592H37.8129V42.4113H38.8129H39.8129V38.5592H38.8129ZM38.8129 42.4113V41.4113H37.9434V42.4113V43.4113H38.8129V42.4113ZM37.9434 42.4113H38.9434V38.5592H37.9434H36.9434V42.4113H37.9434ZM37.9434 38.5592H38.9434C38.9434 37.3108 39.9607 36.2935 41.2091 36.2935V35.2935V34.2935C38.8561 34.2935 36.9434 36.2062 36.9434 38.5592H37.9434ZM41.2091 35.2935V36.2935H44.7341V35.2935V34.2935H41.2091V35.2935ZM44.7341 35.2935V36.2935C45.9825 36.2935 46.9998 37.3108 46.9998 38.5592H47.9998H48.9998C48.9998 36.2062 47.0871 34.2935 44.7341 34.2935V35.2935ZM47.9998 38.5592H46.9998V42.4113H47.9998H48.9998V38.5592H47.9998Z" fill="white" mask="url(#path-17-inside-8_400_209)"/>
<path d="M42.9033 29.3765H43.041C44.1537 29.3765 45.0565 30.2784 45.0566 31.3911V32.9155C45.0566 34.0283 44.1538 34.9302 43.041 34.9302H42.9033C41.7906 34.93 40.8887 34.0282 40.8887 32.9155V31.3911C40.8888 30.2785 41.7907 29.3766 42.9033 29.3765Z" fill="#C906FF" stroke="white"/>
<mask id="path-20-inside-9_400_209" fill="white">
<path d="M39.6982 39.2205H40.5677V42.5304H39.6982V39.2205Z"/>
</mask>
<path d="M39.6982 39.2205H40.5677V42.5304H39.6982V39.2205Z" fill="black"/>
<path d="M39.6982 39.2205V38.2205H38.6982V39.2205H39.6982ZM40.5677 39.2205H41.5677V38.2205H40.5677V39.2205ZM40.5677 42.5304V43.5304H41.5677V42.5304H40.5677ZM39.6982 42.5304H38.6982V43.5304H39.6982V42.5304ZM39.6982 39.2205V40.2205H40.5677V39.2205V38.2205H39.6982V39.2205ZM40.5677 39.2205H39.5677V42.5304H40.5677H41.5677V39.2205H40.5677ZM40.5677 42.5304V41.5304H39.6982V42.5304V43.5304H40.5677V42.5304ZM39.6982 42.5304H40.6982V39.2205H39.6982H38.6982V42.5304H39.6982Z" fill="white" mask="url(#path-20-inside-9_400_209)"/>
<mask id="path-22-inside-10_400_209" fill="white">
<path d="M45.375 39.2205H46.2445V42.5304H45.375V39.2205Z"/>
</mask>
<path d="M45.375 39.2205H46.2445V42.5304H45.375V39.2205Z" fill="black"/>
<path d="M45.375 39.2205V38.2205H44.375V39.2205H45.375ZM46.2445 39.2205H47.2445V38.2205H46.2445V39.2205ZM46.2445 42.5304V43.5304H47.2445V42.5304H46.2445ZM45.375 42.5304H44.375V43.5304H45.375V42.5304ZM45.375 39.2205V40.2205H46.2445V39.2205V38.2205H45.375V39.2205ZM46.2445 39.2205H45.2445V42.5304H46.2445H47.2445V39.2205H46.2445ZM46.2445 42.5304V41.5304H45.375V42.5304V43.5304H46.2445V42.5304ZM45.375 42.5304H46.375V39.2205H45.375H44.375V42.5304H45.375Z" fill="white" mask="url(#path-22-inside-10_400_209)"/>
<mask id="path-24-inside-11_400_209" fill="white">
<path d="M27.5654 29.1619H28.4349V35.4305H27.5654V29.1619Z"/>
</mask>
<path d="M27.5654 29.1619H28.4349V35.4305H27.5654V29.1619Z" fill="black"/>
<path d="M27.5654 29.1619V28.1619H26.5654V29.1619H27.5654ZM28.4349 29.1619H29.4349V28.1619H28.4349V29.1619ZM28.4349 35.4305V36.4305H29.4349V35.4305H28.4349ZM27.5654 35.4305H26.5654V36.4305H27.5654V35.4305ZM27.5654 29.1619V30.1619H28.4349V29.1619V28.1619H27.5654V29.1619ZM28.4349 29.1619H27.4349V35.4305H28.4349H29.4349V29.1619H28.4349ZM28.4349 35.4305V34.4305H27.5654V35.4305V36.4305H28.4349V35.4305ZM27.5654 35.4305H28.5654V29.1619H27.5654H26.5654V35.4305H27.5654Z" fill="white" mask="url(#path-24-inside-11_400_209)"/>
<mask id="path-26-inside-12_400_209" fill="white">
<path d="M20.4082 38.2598L27.8091 35.0279L28.1571 35.8248L20.7562 39.0566L20.4082 38.2598Z"/>
</mask>
<path d="M20.4082 38.2598L27.8091 35.0279L28.1571 35.8248L20.7562 39.0566L20.4082 38.2598Z" fill="black"/>
<path d="M20.4082 38.2598L20.0082 37.3438L19.0922 37.7438L19.4922 38.6598L20.4082 38.2598ZM27.8091 35.0279L28.7251 34.6279L28.3251 33.7119L27.4091 34.1119L27.8091 35.0279ZM28.1571 35.8248L28.5571 36.7408L29.4731 36.3408L29.0731 35.4248L28.1571 35.8248ZM20.7562 39.0566L19.8402 39.4566L20.2402 40.3726L21.1562 39.9726L20.7562 39.0566ZM20.4082 38.2598L20.8082 39.1758L28.2091 35.9439L27.8091 35.0279L27.4091 34.1119L20.0082 37.3438L20.4082 38.2598ZM27.8091 35.0279L26.8931 35.4279L27.2411 36.2248L28.1571 35.8248L29.0731 35.4248L28.7251 34.6279L27.8091 35.0279ZM28.1571 35.8248L27.7571 34.9088L20.3562 38.1406L20.7562 39.0566L21.1562 39.9726L28.5571 36.7408L28.1571 35.8248ZM20.7562 39.0566L21.6722 38.6566L21.3242 37.8598L20.4082 38.2598L19.4922 38.6598L19.8402 39.4566L20.7562 39.0566Z" fill="white" mask="url(#path-26-inside-12_400_209)"/>
<mask id="path-28-inside-13_400_209" fill="white">
<path d="M27.8076 35.8276L28.1556 35.0308L35.5565 38.2626L35.2085 39.0595L27.8076 35.8276Z"/>
</mask>
<path d="M27.8076 35.8276L28.1556 35.0308L35.5565 38.2626L35.2085 39.0595L27.8076 35.8276Z" fill="black"/>
<path d="M27.8076 35.8276L26.8916 35.4276L26.4916 36.3436L27.4076 36.7436L27.8076 35.8276ZM28.1556 35.0308L28.5556 34.1148L27.6396 33.7148L27.2396 34.6308L28.1556 35.0308ZM35.5565 38.2626L36.4725 38.6626L36.8725 37.7466L35.9565 37.3466L35.5565 38.2626ZM35.2085 39.0595L34.8085 39.9755L35.7245 40.3755L36.1245 39.4595L35.2085 39.0595ZM27.8076 35.8276L28.7236 36.2276L29.0716 35.4308L28.1556 35.0308L27.2396 34.6308L26.8916 35.4276L27.8076 35.8276ZM28.1556 35.0308L27.7556 35.9468L35.1565 39.1786L35.5565 38.2626L35.9565 37.3466L28.5556 34.1148L28.1556 35.0308ZM35.5565 38.2626L34.6405 37.8626L34.2925 38.6595L35.2085 39.0595L36.1245 39.4595L36.4725 38.6626L35.5565 38.2626ZM35.2085 39.0595L35.6085 38.1435L28.2076 34.9116L27.8076 35.8276L27.4076 36.7436L34.8085 39.9755L35.2085 39.0595Z" fill="white" mask="url(#path-28-inside-13_400_209)"/>
<defs>
<linearGradient id="paint0_linear_400_209" x1="0" y1="28" x2="56" y2="28" gradientUnits="userSpaceOnUse">
<stop stop-color="#113355" stop-opacity="0.87"/>
<stop offset="0.432692" stop-color="#C906FF"/>
<stop offset="0.870192" stop-color="#EBA2FF"/>
</linearGradient>
</defs>
</svg>
