<svg width="56" height="56" viewBox="0 0 56 56" fill="none" xmlns="http://www.w3.org/2000/svg">
<rect width="56" height="56" rx="10" fill="url(#paint0_linear_400_125)" fill-opacity="0.2"/>
<path d="M39.422 40.765C39.1168 41.0702 38.5711 41.1404 38.04 40.6092L33.9023 36.4715L35.1284 35.2453L39.2662 39.383C39.7974 39.9142 39.7272 40.4599 39.422 40.765ZM34.2482 34.9651L32.6288 33.3452C32.4435 33.5521 32.2478 33.7494 32.0426 33.9366L33.6597 35.5538L34.2482 34.9651ZM36.6835 40.4126C36.2767 40.7475 35.766 40.9303 35.2391 40.9297H18.4721C18.5626 41.2296 18.7473 41.4924 18.9987 41.6794C19.2501 41.8664 19.5549 41.9675 19.8682 41.9679H37.3079C37.6205 41.9685 37.9249 41.8683 38.1759 41.682C37.9073 41.5663 37.664 41.3989 37.46 41.1892L36.6835 40.4126ZM38.766 17.3483C38.7655 16.998 38.6391 16.6596 38.4099 16.3947C38.1807 16.1299 37.8639 15.9562 37.5173 15.9055V36.4741L38.766 37.7227V17.3483ZM36.0991 39.8283L33.2294 36.9588C33.1266 36.8557 33.059 36.7227 33.0364 36.5788C33.0137 36.4349 33.0372 36.2876 33.1034 36.1579L31.4061 34.4606C29.9954 35.5116 28.2827 36.0785 26.5235 36.0766C22.0012 36.0766 18.3221 32.3974 18.3221 27.8752C18.3221 23.353 22.0012 19.6736 26.5234 19.6736C31.0455 19.6736 34.7247 23.3528 34.7247 27.875C34.7266 29.6116 34.1741 31.3035 33.1478 32.7043L34.8656 34.4222C34.9915 34.3705 35.1299 34.3572 35.2633 34.3839C35.3967 34.4106 35.5193 34.4762 35.6156 34.5723L36.697 35.6537V15.49C36.6965 15.1035 36.5428 14.7329 36.2695 14.4595C35.9961 14.1862 35.6255 14.0324 35.239 14.032H20.8122V17.0369C20.8117 17.4255 20.6572 17.798 20.3824 18.0728C20.1076 18.3476 19.7351 18.5021 19.3465 18.5026H16.3413V38.6513C16.3417 39.0379 16.4955 39.4085 16.7688 39.6818C17.0422 39.9552 17.4128 40.1089 17.7994 40.1094H35.239C35.5483 40.1097 35.8496 40.0112 36.0991 39.8283ZM33.9046 27.8752C33.9045 29.335 33.4716 30.7621 32.6605 31.9758C31.8495 33.1896 30.6967 34.1356 29.348 34.6943C27.9993 35.2529 26.5152 35.399 25.0834 35.1142C23.6517 34.8294 22.3365 34.1264 21.3043 33.0941C20.272 32.0619 19.5691 30.7467 19.2843 29.3149C18.9995 27.8832 19.1456 26.3991 19.7043 25.0504C20.2629 23.7017 21.209 22.549 22.4227 21.7379C23.6365 20.9269 25.0636 20.494 26.5234 20.4939C28.4803 20.4961 30.3565 21.2745 31.7402 22.6582C33.124 24.042 33.9024 25.9183 33.9046 27.8752ZM31.9466 27.8752C31.9466 26.8026 31.6286 25.7541 31.0327 24.8623C30.4369 23.9704 29.5899 23.2753 28.599 22.8648C27.608 22.4543 26.5176 22.3469 25.4657 22.5561C24.4137 22.7654 23.4474 23.2818 22.6889 24.0402C21.9304 24.7987 21.4139 25.7649 21.2046 26.8169C20.9954 27.8689 21.1027 28.9593 21.5132 29.9503C21.9236 30.9412 22.6187 31.7882 23.5105 32.3841C24.4023 32.98 25.4508 33.2981 26.5234 33.2981C27.9612 33.2965 29.3396 32.7247 30.3563 31.708C31.373 30.6913 31.9449 29.313 31.9466 27.8752ZM19.9919 17.0369V14.6135L16.931 17.6823H19.3465C19.5176 17.6821 19.6817 17.614 19.8026 17.493C19.9236 17.372 19.9917 17.208 19.9919 17.0369ZM26.6184 23.4376C26.2897 23.4249 25.9619 23.4786 25.6546 23.5956C25.3472 23.7126 25.0666 23.8904 24.8296 24.1184C24.5926 24.3464 24.404 24.6199 24.2752 24.9225C24.1464 25.2251 24.08 25.5506 24.08 25.8795C24.08 25.9882 24.1232 26.0926 24.2002 26.1695C24.2771 26.2464 24.3814 26.2896 24.4902 26.2896C24.599 26.2896 24.7033 26.2464 24.7802 26.1695C24.8571 26.0926 24.9003 25.9882 24.9003 25.8795C24.9003 25.6609 24.9445 25.4446 25.0301 25.2436C25.1157 25.0425 25.241 24.8608 25.3986 24.7093C25.5561 24.5578 25.7426 24.4397 25.9469 24.362C26.1511 24.2844 26.369 24.2487 26.5874 24.2573C26.9444 24.2714 27.2867 24.4028 27.5614 24.6312C27.8362 24.8596 28.0279 25.1723 28.1069 25.5207C28.1859 25.8691 28.1478 26.2338 27.9984 26.5584C27.8491 26.883 27.5969 27.1492 27.2809 27.3159C26.9313 27.4964 26.6377 27.7691 26.4319 28.1045C26.2261 28.4398 26.1159 28.8251 26.1132 29.2185V30.1529C26.1132 30.2617 26.1564 30.366 26.2334 30.443C26.3103 30.5199 26.4146 30.5631 26.5234 30.5631C26.6322 30.5631 26.7365 30.5199 26.8134 30.443C26.8903 30.366 26.9335 30.2617 26.9335 30.1529V29.2185C26.9364 28.9744 27.006 28.7357 27.1347 28.5282C27.2634 28.3207 27.4463 28.1523 27.6638 28.0413C28.1395 27.7903 28.5191 27.3894 28.7437 26.9007C28.9684 26.4121 29.0256 25.863 28.9065 25.3385C28.7874 24.814 28.4986 24.3435 28.0849 23.9998C27.6711 23.6562 27.1558 23.4585 26.6184 23.4376ZM26.7332 31.286H26.2908C26.182 31.286 26.0777 31.3292 26.0007 31.4062C25.9238 31.4831 25.8806 31.5874 25.8806 31.6962C25.8806 31.805 25.9238 31.9093 26.0007 31.9862C26.0777 32.0631 26.182 32.1063 26.2908 32.1063H26.7332C26.842 32.1063 26.9463 32.0631 27.0232 31.9862C27.1001 31.9093 27.1434 31.805 27.1434 31.6962C27.1434 31.5874 27.1001 31.4831 27.0232 31.4062C26.9463 31.3292 26.842 31.286 26.7332 31.286Z" fill="white"/>
<defs>
<linearGradient id="paint0_linear_400_125" x1="0" y1="28" x2="56" y2="28" gradientUnits="userSpaceOnUse">
<stop stop-color="#113355" stop-opacity="0.87"/>
<stop offset="0.432692" stop-color="#C906FF"/>
<stop offset="0.870192" stop-color="#EBA2FF"/>
</linearGradient>
</defs>
</svg>
